Coordinates
version=1
nRows=43
nColumns=12
inDegrees=yes

Units are S.I. units (second, meters, Newtons, ...)
Angles are in degrees

endheader
time	SC_y	SC_z	SC_x	AC_y	AC_z	AC_x	GH_y	GH_z	GH_yy	EL_x	PS_y
       0.0              -17.33          7.381          59.37          47.54          6.498         -4.126         -73.74          52.35         -152.4          16.28          45.01
  0.004202              -17.33          7.383          59.37          47.54          6.497         -4.123         -73.75          52.35         -152.4           16.3          45.02
  0.008404              -17.34          7.384          59.36          47.54          6.497         -4.121         -73.76          52.35         -152.3          16.31          45.04
   0.01261              -17.34          7.386          59.35          47.54          6.496         -4.118         -73.77          52.35         -152.3          16.33          45.06
   0.01681              -17.35          7.388          59.34          47.54          6.496         -4.114         -73.78          52.35         -152.2          16.35          45.08
   0.02101              -17.36           7.39          59.33          47.53          6.496         -4.111         -73.79          52.35         -152.2          16.37           45.1
   0.02521              -17.36          7.393          59.32          47.53          6.495         -4.107          -73.8          52.35         -152.1          16.38          45.12
   0.02941              -17.37          7.395          59.31          47.53          6.495         -4.103         -73.81          52.36         -152.1          16.41          45.14
   0.03362              -17.38          7.398           59.3          47.53          6.494         -4.099         -73.83          52.36         -152.0          16.43          45.17
   0.03782              -17.39          7.401          59.29          47.53          6.493         -4.094         -73.84          52.36         -151.9          16.45           45.2
   0.04202               -17.4          7.404          59.28          47.52          6.493         -4.089         -73.86          52.36         -151.9          16.48          45.23
   0.04622              -17.41          7.407          59.26          47.52          6.492         -4.084         -73.88          52.36         -151.8           16.5          45.26
   0.05043              -17.42          7.411          59.25          47.52          6.491         -4.079          -73.9          52.36         -151.7          16.53          45.29
   0.05463              -17.43          7.414          59.23          47.52           6.49         -4.072         -73.92          52.36         -151.6          16.57          45.33
   0.05883              -17.45          7.419          59.22          47.51           6.49         -4.066         -73.94          52.36         -151.5           16.6          45.37
   0.06303              -17.46          7.423           59.2          47.51          6.489         -4.059         -73.96          52.36         -151.4          16.64          45.41
   0.06723              -17.48          7.428          59.18          47.51          6.488         -4.051         -73.99          52.37         -151.3          16.68          45.46
   0.07144              -17.49          7.433          59.16           47.5          6.487         -4.042         -74.02          52.37         -151.1          16.72          45.51
   0.07564              -17.51          7.439          59.13           47.5          6.485         -4.033         -74.05          52.37         -151.0          16.77          45.56
   0.07984              -17.53          7.445          59.11           47.5          6.484         -4.023         -74.08          52.37         -150.8          16.83          45.62
   0.08404              -17.55          7.452          59.08          47.49          6.483         -4.012         -74.12          52.37         -150.7          16.88          45.69
   0.08824              -17.58           7.46          59.05          47.49          6.481         -3.999         -74.16          52.38         -150.5          16.95          45.76
   0.09245               -17.6          7.469          59.01          47.48          6.479         -3.986          -74.2          52.38         -150.3          17.02          45.85
   0.09665              -17.63          7.478          58.97          47.47          6.477         -3.971         -74.25          52.38         -150.0           17.1          45.94
    0.1009              -17.67          7.488          58.93          47.47          6.475         -3.954         -74.31          52.39         -149.8          17.19          46.04
    0.1051               -17.7            7.5          58.88          47.46          6.473         -3.935         -74.37          52.39         -149.5          17.28          46.15
    0.1093              -17.75          7.513          58.83          47.45           6.47         -3.914         -74.44          52.39         -149.2          17.39          46.27
    0.1135              -17.79          7.528          58.77          47.44          6.467         -3.891         -74.52           52.4         -148.8          17.52          46.41
    0.1177              -17.85          7.544           58.7          47.43          6.463         -3.864         -74.61           52.4         -148.4          17.66          46.57
    0.1219              -17.91          7.563          58.62          47.41          6.459         -3.834         -74.71          52.41         -148.0          17.81          46.75
    0.1261              -17.97          7.585          58.53           47.4          6.455           -3.8         -74.82          52.42         -147.4          17.99          46.96
    0.1303              -18.05           7.61          58.43          47.38           6.45          -3.76         -74.95          52.42         -146.8           18.2          47.19
    0.1345              -18.14          7.638          58.31          47.36          6.444         -3.715         -75.11          52.43         -146.1          18.44          47.47
    0.1387              -18.25          7.671          58.18          47.34          6.437         -3.662         -75.28          52.44         -145.3          18.72          47.78
    0.1429              -18.37           7.71          58.02          47.31          6.429           -3.6         -75.49          52.46         -144.4          19.04          48.15
    0.1471              -18.52          7.756          57.83          47.28          6.419         -3.527         -75.73          52.47         -143.3          19.43          48.59
    0.1513              -18.69           7.81           57.6          47.24          6.408          -3.44         -76.02          52.49         -141.9          19.88          49.11
    0.1555              -18.89          7.875          57.33          47.19          6.394         -3.336         -76.37          52.51         -140.3          20.43          49.73
    0.1597              -19.14          7.954          57.01          47.14          6.377          -3.21         -76.79          52.53         -138.4          21.09          50.49
    0.1639              -19.45           8.05          56.61          47.07          6.357         -3.056          -77.3          52.57         -136.1          21.89          51.41
    0.1681              -19.83          8.169          56.12          46.99          6.332         -2.866         -77.93           52.6         -133.2          22.89          52.54
    0.1723               -20.3          8.317          55.51          46.88          6.301         -2.629         -78.72          52.65         -129.5          24.13          53.96
    0.1765              -20.89          8.504          54.74          46.75          6.262          -2.33         -79.71          52.71         -125.0          25.69          55.74
